<?xml version="1.0" encoding="utf-8"?>
<!-- Generator: Adobe Illustrator 16.0.0, SVG Export Plug-In . SVG Version: 6.00 Build 0)  -->
<!DOCTYPE svg PUBLIC "-//W3C//DTD SVG 1.1//EN" "http://www.w3.org/Graphics/SVG/1.1/DTD/svg11.dtd">
<svg version="1.1" id="Capa_1" xmlns="http://www.w3.org/2000/svg" xmlns:xlink="http://www.w3.org/1999/xlink" x="0px" y="0px"
	 width="1200px" height="1200px" viewBox="0 0 1200 1200" enable-background="new 0 0 1200 1200" xml:space="preserve">
<g>
	<g>
		<path fill-rule="evenodd" clip-rule="evenodd" fill="#493306" d="M543.955,787.675c9.676-8.383,10.849-22.035,2.86-32.055
			c-0.707-0.886-1.448-1.705-2.215-2.479c-0.15-0.201-0.247-0.419-0.403-0.616c-0.707-0.885-1.449-1.705-2.215-2.479
			c-0.15-0.201-0.247-0.418-0.403-0.615c-5.96-7.468-14.057-10.879-23.379-11.366c-6.078-0.319-12.188-0.097-18.279-0.093
			c-0.652,0-1.303,0.138-1.991,0.22v51.223c0.893,0,1.737-0.005,2.618-0.009v3.104c0.893,0,1.737-0.006,2.618-0.01v3.104
			c6.845,0,13.324-0.1,19.803,0.026C531.063,795.786,537.988,792.841,543.955,787.675z"/>
		<path fill-rule="evenodd" clip-rule="evenodd" fill="#493306" d="M846.302,753.611c-0.755-1.037-1.584-2.053-2.536-3.02
			c-0.026-0.026-0.056-0.049-0.082-0.074c-0.755-1.038-1.584-2.053-2.536-3.021c-7.472-7.579-16.878-10.436-24.992-10.699
			c-8.245-0.063-13.988,1.053-19.466,3.478c-5.602,2.477-10.421,5.979-13.728,11.213c-5.014,7.933-4.917,15.958,0.138,23.851
			c0.983,1.539,2.153,2.894,3.406,4.156c0.796,1.109,1.67,2.14,2.619,3.094c2.46,3.429,5.646,6.131,9.36,8.184
			c9.053,5.006,18.688,6.383,28.809,4.403c7.308-1.428,13.798-4.481,19.075-9.855c9.138-9.313,9.193-22.321,0.015-31.635
			C846.357,753.66,846.328,753.638,846.302,753.611z"/>
		<path fill-rule="evenodd" clip-rule="evenodd" fill="#493306" d="M1148.969,468.732c-1.959-11.78-5.924-22.854-11.896-33.193
			c-4.022-6.964-8.681-13.291-13.886-19.064c-0.87-1.034-1.716-2.094-2.618-3.094c-9.058-10.789-19.925-19.757-32.254-27.235
			c-18.833-11.421-39.307-18.518-60.811-22.832c-10.495-2.107-21.062-4.123-31.787-4.136c-82.419-0.102-164.842-0.044-247.261-0.109
			c-2.641,0-4.307,0.854-5.928,2.906c-11.969,15.139-24.056,30.179-36.102,45.254c-32.865,41.141-65.735,82.281-98.604,123.422
			c-0.298,0.372-0.623,0.759-0.94,1.138c-17.167-56.162-34.158-111.74-51.13-167.261c-0.558,0-1.113,0-1.671,0
			c-0.316-1.032-0.631-2.063-0.947-3.094c-0.558,0-1.113,0-1.672,0c-0.315-1.032-0.63-2.062-0.946-3.094
			c-134.11,0-267.896,0-401.901,0c-4.561,20.225-9.082,40.289-13.731,60.917c1.333,0,2.367-0.004,3.315-0.004
			c-0.234,1.042-0.461,2.055-0.697,3.098c1.333,0,2.367-0.004,3.315-0.004c-0.234,1.042-0.461,2.055-0.697,3.098
			c1.984,0,3.325-0.008,4.67,0c29.128,0.18,58.258,0.366,87.387,0.539c17.43,0.104,34.857,0.246,52.285,0.249
			c8.742,0.002,17.409,0.629,25.983,2.317c13.094,2.579,25.366,7.127,36.098,15.289c2.399,1.826,4.612,3.777,6.631,5.839
			c10.048,13.748,12.831,31.051,7.221,48.504c-4.924,15.321-14.403,27.506-26.724,37.476
			c-25.379,20.537-55.235,29.598-87.144,32.494c-11.908,1.081-23.929,0.908-35.919,1.081c9.944-39.514,19.899-79.025,29.838-118.539
			c0.287-1.136,0.407-2.313,0.627-3.602c-1.053,0-2.094,0-3.146,0c0.208-0.982,0.341-1.994,0.528-3.094c-1.053,0-2.094,0-3.146,0
			c0.208-0.982,0.341-1.994,0.528-3.094c-36.137,0-71.829,0-107.859,0c-14.701,62.39-29.379,124.675-44.11,187.184
			c1.197,0.168,2.021,0.352,2.853,0.386c0.134,0.005,0.268,0.009,0.401,0.015c-0.212,0.897-0.424,1.794-0.636,2.694
			c1.197,0.167,2.021,0.352,2.853,0.385c0.134,0.006,0.268,0.01,0.401,0.015c-0.212,0.898-0.424,1.795-0.636,2.694
			c1.197,0.168,2.021,0.352,2.853,0.386c27.863,1.125,55.728,1.835,83.622,1.117c21.907-0.565,43.789-1.562,65.616-3.486
			c23.559-2.075,47.002-5.084,70.233-9.567c23.968-4.627,47.562-10.637,70.395-19.386c19.959-7.647,38.946-17.11,55.889-30.311
			c16.072-12.522,29.022-27.564,37.023-46.519c9.055-21.448,10.023-43.685,6.258-66.336c-0.09-0.537-0.212-1.069-0.307-1.604
			c28.404,77.681,56.813,155.375,85.309,233.297c-1.423,0.082-2.39,0.171-3.358,0.179c-14.937,0.148-29.874,0.171-44.81,0.457
			c-22.026,0.424-44.053,0.956-66.073,1.596c-38.577,1.116-77.114,3.079-115.592,6.059c-21.587,1.67-43.191,3.284-64.72,5.56
			c-23.625,2.496-47.201,5.527-70.752,8.685c-25.896,3.47-51.597,8.13-77,14.296c-15.719,3.819-31.318,8.101-46.095,14.824
			c-4.736,2.153-9.339,4.701-13.706,7.524c-2.773,1.792-5.308,4.173-7.411,6.738c-4.202,5.118-4.217,10.533-0.18,15.71
			c0.665,0.855,1.426,1.662,2.188,2.46c0.15,0.21,0.266,0.424,0.43,0.634c0.665,0.855,1.426,1.663,2.188,2.461
			c0.15,0.21,0.266,0.424,0.43,0.634c1.736,2.231,3.823,4.348,6.147,5.928c4,2.712,8.167,5.267,12.519,7.356
			c13.395,6.438,27.604,10.604,41.942,14.308c29.791,7.698,60.056,13.013,90.524,17.008c28.122,3.682,56.314,6.939,84.548,9.644
			c26.506,2.532,53.088,4.392,79.671,5.999c26.959,1.629,53.947,2.927,80.942,3.733c32.72,0.979,65.459,1.674,98.193,1.789
			c36.347,0.123,72.7-0.298,109.04-0.963c24.513-0.454,49.018-1.604,73.512-2.708c20.143-0.9,40.281-1.993,60.397-3.384
			c19.986-1.377,39.958-3.039,59.907-4.921c19.443-1.833,38.902-3.715,58.264-6.285c22.553-2.994,45.057-6.486,67.501-10.261
			c21.345-3.589,42.454-8.376,63.132-14.884c10.091-3.177,20.021-6.791,29.311-11.942c4.259-2.361,8.327-5.01,11.618-8.669
			c5.713-6.341,5.902-12.809-0.052-18.894c-0.149-0.15-0.313-0.293-0.463-0.442c-0.604-0.891-1.298-1.775-2.155-2.651
			c-0.148-0.15-0.313-0.294-0.463-0.442c-0.604-0.891-1.299-1.776-2.155-2.652c-3.095-3.153-6.725-6.062-10.626-8.077
			c-7.159-3.697-14.537-7.107-22.113-9.83c-23.363-8.397-47.608-13.438-71.961-17.9c-38.701-7.081-77.722-11.856-116.861-15.649
			c-19.194-1.863-38.43-3.414-57.668-4.775c-22.725-1.6-45.455-3.109-68.209-4.181c-26.227-1.234-52.479-2.216-78.732-2.812
			c-26.758-0.609-53.521-0.73-80.282-1.014c73.81-83.063,147.63-166.125,221.397-249.228
			c-14.577,61.863-29.091,123.457-43.705,185.46c1.277,0,2.343,0,3.347,0c-0.243,1.034-0.485,2.061-0.729,3.095
			c1.277,0,2.343,0,3.347,0c-0.243,1.034-0.484,2.061-0.729,3.094c2.157,0,3.764,0,5.367,0c51.542,0,103.089-0.021,154.632,0.021
			c8.971,0.006,17.9-0.315,26.841-1.173c22.59-2.167,44.871-5.96,66.729-12.101c25.539-7.174,49.813-17.234,71.994-31.973
			c19.197-12.76,35.748-28.224,47.876-48.006c8.813-14.384,14.969-29.757,16.073-46.827c0.041-0.573,0.391-1.127,0.6-1.69
			c0-5.48,0-10.957,0-16.437C1149.661,473.807,1149.39,471.257,1148.969,468.732z M567.212,691.139
			c0.111,0.305,0.223,0.607,0.335,0.913c-0.348,0.001-0.699,0.001-1.094,0.001C566.734,691.717,566.978,691.423,567.212,691.139z
			 M482.015,730.784c0.788-0.063,1.447-0.164,2.107-0.156c12.788,0.056,25.583-0.171,38.356,0.282
			c12.132,0.432,23.687,3.525,34.266,9.715c3.344,1.96,6.404,4.264,9.146,6.936c8.372,12.414,6.974,27.005-3.911,38.05
			c-6.142,6.233-13.63,10.332-21.838,13.018c-5.211,1.71-10.624,2.808-15.963,4.098c-1.031,0.25-2.155,0.172-3.231,0.172
			c-12.978-0.028-25.954-0.071-38.932-0.112V730.784z M404.775,731.104c5.209-0.089,10.425-0.07,15.691-0.056v71.574h-15.691
			V731.104z M293.47,804.917c-6.39-11.862-12.889-23.665-19.358-35.492c-6.463-11.804-12.931-23.616-19.391-35.432
			c-0.514-0.934-0.985-1.893-1.729-3.328c4.093,0,7.719-0.008,11.343,0.004c3.539,0.015,7.081,0.115,10.618,0.048
			c0.277-0.006,0.502,0.037,0.748,0.06c7.063,14.018,14.214,27.99,21.346,41.974c0.572,1.123,1.156,2.243,1.948,3.778
			c0.207-0.354,0.372-0.628,0.547-0.924c0.041,0.08,0.082,0.16,0.123,0.24c0.572,1.123,1.156,2.242,1.948,3.778
			c0.207-0.355,0.372-0.629,0.547-0.924c0.041,0.079,0.082,0.159,0.123,0.239c0.572,1.123,1.156,2.243,1.948,3.778
			c0.655-1.13,1.147-1.889,1.555-2.692c7.591-15.1,15.171-30.206,22.756-45.313c0.485-0.967,0.911-1.979,1.539-2.849
			c0.348-0.476,1.057-0.981,1.608-0.981c4.536-0.041,9.11-0.049,13.742-0.047c-13.227,23.941-26.478,47.87-39.658,71.84
			c-0.941,1.703-1.97,2.425-3.914,2.283c-2.349-0.167-4.728-0.175-7.078,0C294.294,804.995,293.872,804.969,293.47,804.917z
			 M705.567,737.791h-54.443c-0.748,2.35-0.948,12.184-0.395,17.293h2.402c0.053,1.124,0.119,2.196,0.216,3.095h2.402
			c0.053,1.123,0.119,2.196,0.216,3.095h46.608v6.794c-8.644,0.205-17.253,0.06-25.863,0.086
			c-8.628,0.029-17.253,0.008-26.048,0.008v21.332c0.875,0.008,1.744,0.012,2.618,0.019v3.076c0.875,0.007,1.744,0.011,2.618,0.019
			v3.075c3.611,0.03,7.207,0.063,10.804,0.075c3.641,0.015,7.278,0.003,10.919,0.003h27.894v6.848h-77.026V731.55
			c1.761-0.543,59.082-0.907,77.078-0.572V737.791z M866.099,745.809c7.836,11.483,7.756,25.238-0.331,36.622
			c-5.516,7.766-13.002,13.065-21.642,16.77c-11.41,4.905-23.349,6.68-35.736,5.705c-9.521-0.744-18.6-3.042-27.124-7.371
			c-4.84-2.462-9.247-5.483-13.068-9.236c-8.273-11.988-7.926-26.324,1.187-38.107c6.14-7.944,14.277-13.114,23.534-16.647
			c8.636-3.295,17.603-4.819,26.849-4.771c12.607,0.056,24.568,2.704,35.613,8.952C859.347,739.965,862.923,742.663,866.099,745.809
			z M811.228,428.395c2.012-2.271,4.023-3.109,7.025-3.104c45.316,0.095,90.638,0.113,135.958,0.035
			c11.916-0.022,23.572,1.62,35.016,4.768c13.244,3.641,25.457,9.34,35.536,18.936c0.71,0.677,1.339,1.391,2.007,2.088
			c6.213,8.66,9.451,18.638,9.389,29.957c-0.063,10.535-3.195,20.336-8.368,29.491c-6.676,11.804-15.873,21.313-26.74,29.281
			c-15.791,11.57-33.49,18.987-52.384,23.618c-6.742,1.651-13.63,3.372-20.511,3.703c-15.235,0.729-30.504,0.738-45.767,0.973
			c9.606-40.652,19.308-80.855,28.778-121.161c-1.125,0-2.23,0-3.354,0c0.244-1.032,0.493-2.062,0.735-3.094
			c-1.126,0-2.23,0-3.354,0c0.244-1.032,0.493-2.063,0.734-3.095c-35.533,0-70.524,0-105.715,0
			C803.884,436.657,807.559,432.529,811.228,428.395z"/>
	</g>
	<g>
		<linearGradient id="SVGID_1_" gradientUnits="userSpaceOnUse" x1="519.0972" y1="775.4424" x2="519.0972" y2="325.3217">
			<stop  offset="0" style="stop-color:#EFB700"/>
			<stop  offset="0.618" style="stop-color:#A56D00"/>
			<stop  offset="0.6292" style="stop-color:#DEA600"/>
			<stop  offset="0.9831" style="stop-color:#C89000"/>
		</linearGradient>
		<path fill-rule="evenodd" clip-rule="evenodd" fill="url(#SVGID_1_)" d="M514.903,734.256c-6.078-0.32-12.188-0.093-18.279-0.092
			c-0.652,0-1.304,0.14-1.991,0.218v51.226c6.845,0,13.323-0.099,19.803,0.025c8.094,0.158,15.02-2.787,20.986-7.955
			c9.675-8.383,10.849-22.037,2.86-32.053C532.322,738.155,524.225,734.745,514.903,734.256z"/>
		<linearGradient id="SVGID_2_" gradientUnits="userSpaceOnUse" x1="810.335" y1="775.4414" x2="810.335" y2="325.3155">
			<stop  offset="0" style="stop-color:#EFB700"/>
			<stop  offset="0.618" style="stop-color:#A56D00"/>
			<stop  offset="0.6292" style="stop-color:#DEA600"/>
			<stop  offset="0.9831" style="stop-color:#C89000"/>
		</linearGradient>
		<path fill-rule="evenodd" clip-rule="evenodd" fill="url(#SVGID_2_)" d="M789.952,780.774c9.052,5.009,18.688,6.382,28.808,4.405
			c7.309-1.427,13.798-4.481,19.075-9.856c9.139-9.311,9.194-22.323,0.016-31.636c-7.472-7.578-16.878-10.433-24.992-10.698
			c-8.246-0.065-13.988,1.055-19.466,3.476c-5.602,2.479-10.421,5.984-13.728,11.215c-5.014,7.935-4.917,15.959,0.138,23.851
			C782.339,775.498,785.85,778.507,789.952,780.774z"/>
		<linearGradient id="SVGID_3_" gradientUnits="userSpaceOnUse" x1="595.7329" y1="775.4414" x2="595.7329" y2="325.3182">
			<stop  offset="0" style="stop-color:#EFB700"/>
			<stop  offset="0.618" style="stop-color:#A56D00"/>
			<stop  offset="0.6292" style="stop-color:#DEA600"/>
			<stop  offset="0.9831" style="stop-color:#C89000"/>
		</linearGradient>
		<path fill-rule="evenodd" clip-rule="evenodd" fill="url(#SVGID_3_)" d="M1140.436,458.735
			c-1.96-11.78-5.924-22.854-11.896-33.193c-10.593-18.341-25.555-32.308-43.521-43.205c-18.834-11.421-39.307-18.517-60.811-22.831
			c-10.496-2.107-21.062-4.123-31.787-4.136c-82.419-0.103-164.842-0.045-247.261-0.11c-2.641,0-4.307,0.854-5.928,2.907
			c-11.969,15.139-24.056,30.179-36.102,45.254c-32.866,41.141-65.735,82.281-98.604,123.422c-0.967,1.21-1.986,2.382-3.392,4.059
			c-18.119-59.275-36.025-117.843-53.916-176.371c-134.11,0-267.896,0-401.902,0c-4.56,20.225-9.082,40.289-13.73,60.917
			c1.984,0,3.325-0.007,4.669,0c29.128,0.181,58.258,0.366,87.388,0.539c17.43,0.104,34.857,0.246,52.285,0.25
			c8.741,0.002,17.409,0.628,25.983,2.317c13.093,2.579,25.366,7.128,36.098,15.289c19.291,14.674,26.498,37.478,19.088,60.532
			c-4.924,15.321-14.404,27.506-26.724,37.476c-25.379,20.537-55.235,29.598-87.144,32.494c-13.359,1.212-26.861,0.822-40.3,1.144
			c-0.601,0.015-1.209-0.141-2.161-0.262c0.227-1.203,0.372-2.28,0.634-3.323c10.168-40.402,20.348-80.803,30.51-121.205
			c0.286-1.136,0.407-2.313,0.627-3.602c-36.137,0-71.829,0-107.859,0c-14.702,62.39-29.379,124.675-44.11,187.185
			c1.197,0.167,2.021,0.351,2.853,0.385c27.863,1.125,55.727,1.835,83.622,1.117c21.907-0.565,43.788-1.562,65.616-3.486
			c23.559-2.075,47.002-5.084,70.232-9.567c23.968-4.627,47.563-10.637,70.396-19.386c19.958-7.646,38.946-17.109,55.889-30.311
			c16.072-12.522,29.021-27.564,37.023-46.519c9.055-21.448,10.023-43.685,6.258-66.335c-0.89-5.363-2.132-10.667-3.212-15.996
			c0.187-0.058,0.37-0.116,0.553-0.173c30.934,84.595,61.865,169.189,92.897,254.052c-1.423,0.078-2.39,0.169-3.358,0.177
			c-14.937,0.15-29.874,0.169-44.81,0.458c-22.026,0.424-44.053,0.957-66.073,1.597c-38.577,1.116-77.114,3.08-115.592,6.057
			c-21.588,1.67-43.191,3.286-64.72,5.559c-23.625,2.497-47.201,5.528-70.752,8.686c-25.896,3.468-51.597,8.13-77,14.296
			c-15.719,3.818-31.318,8.101-46.095,14.825c-4.736,2.153-9.339,4.7-13.707,7.525c-2.772,1.79-5.307,4.173-7.41,6.737
			c-4.202,5.119-4.217,10.534-0.18,15.711c1.736,2.231,3.823,4.346,6.147,5.925c4,2.713,8.167,5.268,12.519,7.357
			c13.394,6.438,27.603,10.604,41.941,14.308c29.792,7.698,60.057,13.016,90.525,17.006c28.121,3.686,56.314,6.943,84.548,9.646
			c26.506,2.534,53.088,4.394,79.67,6.001c26.96,1.625,53.947,2.925,80.942,3.731c32.721,0.979,65.46,1.674,98.193,1.789
			c36.347,0.123,72.701-0.298,109.04-0.965c24.513-0.452,49.019-1.602,73.512-2.704c20.143-0.903,40.282-1.995,60.398-3.384
			c19.986-1.377,39.958-3.041,59.907-4.923c19.443-1.833,38.901-3.715,58.264-6.285c22.552-2.994,45.057-6.486,67.501-10.263
			c21.344-3.587,42.453-8.372,63.132-14.88c10.09-3.177,20.021-6.791,29.311-11.944c4.258-2.363,8.327-5.012,11.618-8.669
			c5.713-6.341,5.902-12.809-0.052-18.892c-3.095-3.153-6.725-6.063-10.626-8.079c-7.159-3.699-14.538-7.107-22.113-9.83
			c-23.363-8.397-47.608-13.438-71.961-17.897c-38.701-7.085-77.722-11.858-116.861-15.652c-19.194-1.863-38.43-3.414-57.669-4.773
			c-22.724-1.603-45.454-3.109-68.208-4.18c-26.227-1.235-52.479-2.217-78.733-2.813c-28.748-0.653-57.503-0.738-86.258-1.069
			c-1.292-0.016-2.584-0.004-4.529-0.004c1.333-1.594,2.092-2.548,2.898-3.461C644.948,596,723.856,507.229,802.693,418.398
			c2.013-2.271,4.024-3.109,7.025-3.104c45.317,0.095,90.639,0.113,135.959,0.035c11.916-0.022,23.572,1.62,35.016,4.768
			c13.244,3.641,25.457,9.34,35.536,18.936c10.911,10.387,16.717,23.116,16.632,38.234c-0.063,10.534-3.195,20.336-8.368,29.491
			c-6.676,11.804-15.873,21.312-26.74,29.28c-15.792,11.57-33.49,18.988-52.384,23.618c-6.742,1.651-13.63,3.371-20.511,3.702
			c-16.155,0.773-32.349,0.729-48.53,1.01c-1.201,0.021-2.399,0.004-3.953,0.004c10.086-42.788,20.302-85.017,30.258-127.39
			c-35.993,0-71.429,0-107.08,0c-14.742,62.568-29.418,124.85-44.197,187.552c2.157,0,3.764,0,5.366,0
			c51.543,0,103.09-0.02,154.633,0.021c8.971,0.006,17.9-0.315,26.841-1.173c22.59-2.166,44.871-5.96,66.729-12.101
			c25.538-7.174,49.813-17.234,71.994-31.973c19.197-12.76,35.747-28.224,47.875-48.006c8.814-14.384,14.97-29.756,16.074-46.827
			c0.041-0.573,0.391-1.127,0.599-1.69c0-5.48,0-10.956,0-16.437C1141.128,463.81,1140.856,461.261,1140.436,458.735z
			 M344.228,723.232c-13.924,25.208-27.876,50.399-41.752,75.631c-0.941,1.707-1.97,2.425-3.914,2.288
			c-2.349-0.17-4.728-0.177-7.078,0c-2.233,0.169-3.484-0.557-4.595-2.632c-7.007-13.08-14.187-26.068-21.311-39.09
			c-6.464-11.808-12.931-23.619-19.392-35.434c-0.513-0.935-0.985-1.895-1.729-3.326c4.093,0,7.719-0.012,11.343,0.002
			c3.539,0.015,7.081,0.113,10.618,0.048c1.977-0.037,3.126,0.599,4.078,2.499c7.672,15.28,15.482,30.491,23.252,45.721
			c0.572,1.127,1.156,2.245,1.948,3.779c0.654-1.129,1.147-1.888,1.555-2.691c7.591-15.101,15.17-30.208,22.755-45.312
			c0.485-0.967,0.912-1.98,1.54-2.849c0.348-0.479,1.057-0.981,1.608-0.985c7.245-0.065,14.493-0.043,22.135-0.043
			C344.829,721.89,344.583,722.593,344.228,723.232z M417.169,798.813h-20.928v-77.705c6.935-0.122,13.837-0.048,20.928-0.048
			V798.813z M760.851,740.191c6.14-7.94,14.277-13.11,23.534-16.645c8.636-3.296,17.603-4.818,26.848-4.772
			c12.608,0.057,24.568,2.706,35.614,8.95c6.24,3.528,11.641,8.039,15.769,13.964c8.049,11.542,8.015,25.449-0.145,36.934
			c-5.516,7.766-13.002,13.063-21.642,16.771c-11.41,4.904-23.349,6.676-35.736,5.705c-9.521-0.747-18.6-3.044-27.124-7.373
			c-6.561-3.336-12.34-7.68-16.918-13.515C751.359,767.859,751.251,752.605,760.851,740.191z M619.956,721.553
			c2.038-0.628,78.547-1.017,82.314-0.36v12.79h-54.443c-0.748,2.353-0.948,12.186-0.395,17.296h51.844v12.981
			c-8.643,0.202-17.253,0.06-25.862,0.085c-8.628,0.028-17.253,0.008-26.049,0.008v21.334c3.611,0.026,7.208,0.062,10.805,0.071
			c3.641,0.015,7.278,0.006,10.919,0.006h33.13v13.033h-82.263V721.553z M558.682,781.805c-6.142,6.232-13.63,10.331-21.838,13.017
			c-5.211,1.707-10.624,2.806-15.963,4.097c-1.032,0.249-2.155,0.171-3.231,0.171c-13.772-0.03-27.542-0.072-41.315-0.121
			c-0.865-0.004-1.731-0.089-2.853-0.146v-78.036c0.788-0.062,1.446-0.16,2.106-0.156c12.788,0.058,25.584-0.171,38.357,0.282
			c12.132,0.434,23.687,3.526,34.266,9.719c4.796,2.81,9.052,6.273,12.539,10.619C571.116,754.164,570.306,770.007,558.682,781.805z
			"/>
	</g>
	<g>
		<linearGradient id="SVGID_4_" gradientUnits="userSpaceOnUse" x1="513.2021" y1="799.5117" x2="572.2314" y2="283.4812">
			<stop  offset="0.0054" style="stop-color:#FFFFFF;stop-opacity:0"/>
			<stop  offset="0.7152" style="stop-color:#FFFFFF;stop-opacity:0"/>
			<stop  offset="0.9831" style="stop-color:#FFFFFF"/>
		</linearGradient>
		<path fill-rule="evenodd" clip-rule="evenodd" fill="url(#SVGID_4_)" d="M514.903,734.256c-6.078-0.32-12.188-0.093-18.279-0.092
			c-0.652,0-1.304,0.14-1.991,0.218v51.226c6.845,0,13.323-0.099,19.803,0.025c8.094,0.158,15.02-2.787,20.986-7.955
			c9.675-8.383,10.849-22.037,2.86-32.053C532.322,738.155,524.225,734.745,514.903,734.256z"/>
		<linearGradient id="SVGID_5_" gradientUnits="userSpaceOnUse" x1="801.9814" y1="832.5449" x2="861.0103" y2="316.5188">
			<stop  offset="0.0054" style="stop-color:#FFFFFF;stop-opacity:0"/>
			<stop  offset="0.7152" style="stop-color:#FFFFFF;stop-opacity:0"/>
			<stop  offset="0.9831" style="stop-color:#FFFFFF"/>
		</linearGradient>
		<path fill-rule="evenodd" clip-rule="evenodd" fill="url(#SVGID_5_)" d="M789.952,780.774c9.052,5.009,18.688,6.382,28.808,4.405
			c7.309-1.427,13.798-4.481,19.075-9.856c9.139-9.311,9.194-22.323,0.016-31.636c-7.472-7.578-16.878-10.433-24.992-10.698
			c-8.246-0.065-13.988,1.055-19.466,3.476c-5.602,2.479-10.421,5.984-13.728,11.215c-5.014,7.935-4.917,15.959,0.138,23.851
			C782.339,775.498,785.85,778.507,789.952,780.774z"/>
		<linearGradient id="SVGID_6_" gradientUnits="userSpaceOnUse" x1="574.6299" y1="806.5391" x2="633.6594" y2="290.5065">
			<stop  offset="0.0054" style="stop-color:#FFFFFF;stop-opacity:0"/>
			<stop  offset="0.7152" style="stop-color:#FFFFFF;stop-opacity:0"/>
			<stop  offset="0.9831" style="stop-color:#FFFFFF"/>
		</linearGradient>
		<path fill-rule="evenodd" clip-rule="evenodd" fill="url(#SVGID_6_)" d="M1140.436,458.735
			c-1.96-11.78-5.924-22.854-11.896-33.193c-10.593-18.341-25.555-32.308-43.521-43.205c-18.834-11.421-39.307-18.517-60.811-22.831
			c-10.496-2.107-21.062-4.123-31.787-4.136c-82.419-0.103-164.842-0.045-247.261-0.11c-2.641,0-4.307,0.854-5.928,2.907
			c-11.969,15.139-24.056,30.179-36.102,45.254c-32.866,41.141-65.735,82.281-98.604,123.422c-0.967,1.21-1.986,2.382-3.392,4.059
			c-18.119-59.275-36.025-117.843-53.916-176.371c-134.11,0-267.896,0-401.902,0c-4.56,20.225-9.082,40.289-13.73,60.917
			c1.984,0,3.325-0.007,4.669,0c29.128,0.181,58.258,0.366,87.388,0.539c17.43,0.104,34.857,0.246,52.285,0.25
			c8.741,0.002,17.409,0.628,25.983,2.317c13.093,2.579,25.366,7.128,36.098,15.289c19.291,14.674,26.498,37.478,19.088,60.532
			c-4.924,15.321-14.404,27.506-26.724,37.476c-25.379,20.537-55.235,29.598-87.144,32.494c-13.359,1.212-26.861,0.822-40.3,1.144
			c-0.601,0.015-1.209-0.141-2.161-0.262c0.227-1.203,0.372-2.28,0.634-3.323c10.168-40.402,20.348-80.803,30.51-121.205
			c0.286-1.136,0.407-2.313,0.627-3.602c-36.137,0-71.829,0-107.859,0c-14.702,62.39-29.379,124.675-44.11,187.185
			c1.197,0.167,2.021,0.351,2.853,0.385c27.863,1.125,55.727,1.835,83.622,1.117c21.907-0.565,43.788-1.562,65.616-3.486
			c23.559-2.075,47.002-5.084,70.232-9.567c23.968-4.627,47.563-10.637,70.396-19.386c19.958-7.646,38.946-17.109,55.889-30.311
			c16.072-12.522,29.021-27.564,37.023-46.519c9.055-21.448,10.023-43.685,6.258-66.335c-0.89-5.363-2.132-10.667-3.212-15.996
			c0.187-0.058,0.37-0.116,0.553-0.173c30.934,84.595,61.865,169.189,92.897,254.052c-1.423,0.078-2.39,0.169-3.358,0.177
			c-14.937,0.15-29.874,0.169-44.81,0.458c-22.026,0.424-44.053,0.957-66.073,1.597c-38.577,1.116-77.114,3.08-115.592,6.057
			c-21.588,1.67-43.191,3.286-64.72,5.559c-23.625,2.497-47.201,5.528-70.752,8.686c-25.896,3.468-51.597,8.13-77,14.296
			c-15.719,3.818-31.318,8.101-46.095,14.825c-4.736,2.153-9.339,4.7-13.707,7.525c-2.772,1.79-5.307,4.173-7.41,6.737
			c-4.202,5.119-4.217,10.534-0.18,15.711c1.736,2.231,3.823,4.346,6.147,5.925c4,2.713,8.167,5.268,12.519,7.357
			c13.394,6.438,27.603,10.604,41.941,14.308c29.792,7.698,60.057,13.016,90.525,17.006c28.121,3.686,56.314,6.943,84.548,9.646
			c26.506,2.534,53.088,4.394,79.67,6.001c26.96,1.625,53.947,2.925,80.942,3.731c32.721,0.979,65.46,1.674,98.193,1.789
			c36.347,0.123,72.701-0.298,109.04-0.965c24.513-0.452,49.019-1.602,73.512-2.704c20.143-0.903,40.282-1.995,60.398-3.384
			c19.986-1.377,39.958-3.041,59.907-4.923c19.443-1.833,38.901-3.715,58.264-6.285c22.552-2.994,45.057-6.486,67.501-10.263
			c21.344-3.587,42.453-8.372,63.132-14.88c10.09-3.177,20.021-6.791,29.311-11.944c4.258-2.363,8.327-5.012,11.618-8.669
			c5.713-6.341,5.902-12.809-0.052-18.892c-3.095-3.153-6.725-6.063-10.626-8.079c-7.159-3.699-14.538-7.107-22.113-9.83
			c-23.363-8.397-47.608-13.438-71.961-17.897c-38.701-7.085-77.722-11.858-116.861-15.652c-19.194-1.863-38.43-3.414-57.669-4.773
			c-22.724-1.603-45.454-3.109-68.208-4.18c-26.227-1.235-52.479-2.217-78.733-2.813c-28.748-0.653-57.503-0.738-86.258-1.069
			c-1.292-0.016-2.584-0.004-4.529-0.004c1.333-1.594,2.092-2.548,2.898-3.461C644.948,596,723.856,507.229,802.693,418.398
			c2.013-2.271,4.024-3.109,7.025-3.104c45.317,0.095,90.639,0.113,135.959,0.035c11.916-0.022,23.572,1.62,35.016,4.768
			c13.244,3.641,25.457,9.34,35.536,18.936c10.911,10.387,16.717,23.116,16.632,38.234c-0.063,10.534-3.195,20.336-8.368,29.491
			c-6.676,11.804-15.873,21.312-26.74,29.28c-15.792,11.57-33.49,18.988-52.384,23.618c-6.742,1.651-13.63,3.371-20.511,3.702
			c-16.155,0.773-32.349,0.729-48.53,1.01c-1.201,0.021-2.399,0.004-3.953,0.004c10.086-42.788,20.302-85.017,30.258-127.39
			c-35.993,0-71.429,0-107.08,0c-14.742,62.568-29.418,124.85-44.197,187.552c2.157,0,3.764,0,5.366,0
			c51.543,0,103.09-0.02,154.633,0.021c8.971,0.006,17.9-0.315,26.841-1.173c22.59-2.166,44.871-5.96,66.729-12.101
			c25.538-7.174,49.813-17.234,71.994-31.973c19.197-12.76,35.747-28.224,47.875-48.006c8.814-14.384,14.97-29.756,16.074-46.827
			c0.041-0.573,0.391-1.127,0.599-1.69c0-5.48,0-10.956,0-16.437C1141.128,463.81,1140.856,461.261,1140.436,458.735z
			 M344.228,723.232c-13.924,25.208-27.876,50.399-41.752,75.631c-0.941,1.707-1.97,2.425-3.914,2.288
			c-2.349-0.17-4.728-0.177-7.078,0c-2.233,0.169-3.484-0.557-4.595-2.632c-7.007-13.08-14.187-26.068-21.311-39.09
			c-6.464-11.808-12.931-23.619-19.392-35.434c-0.513-0.935-0.985-1.895-1.729-3.326c4.093,0,7.719-0.012,11.343,0.002
			c3.539,0.015,7.081,0.113,10.618,0.048c1.977-0.037,3.126,0.599,4.078,2.499c7.672,15.28,15.482,30.491,23.252,45.721
			c0.572,1.127,1.156,2.245,1.948,3.779c0.654-1.129,1.147-1.888,1.555-2.691c7.591-15.101,15.17-30.208,22.755-45.312
			c0.485-0.967,0.912-1.98,1.54-2.849c0.348-0.479,1.057-0.981,1.608-0.985c7.245-0.065,14.493-0.043,22.135-0.043
			C344.829,721.89,344.583,722.593,344.228,723.232z M417.169,798.813h-20.928v-77.705c6.935-0.122,13.837-0.048,20.928-0.048
			V798.813z M760.851,740.191c6.14-7.94,14.277-13.11,23.534-16.645c8.636-3.296,17.603-4.818,26.848-4.772
			c12.608,0.057,24.568,2.706,35.614,8.95c6.24,3.528,11.641,8.039,15.769,13.964c8.049,11.542,8.015,25.449-0.145,36.934
			c-5.516,7.766-13.002,13.063-21.642,16.771c-11.41,4.904-23.349,6.676-35.736,5.705c-9.521-0.747-18.6-3.044-27.124-7.373
			c-6.561-3.336-12.34-7.68-16.918-13.515C751.359,767.859,751.251,752.605,760.851,740.191z M619.956,721.553
			c2.038-0.628,78.547-1.017,82.314-0.36v12.79h-54.443c-0.748,2.353-0.948,12.186-0.395,17.296h51.844v12.981
			c-8.643,0.202-17.253,0.06-25.862,0.085c-8.628,0.028-17.253,0.008-26.049,0.008v21.334c3.611,0.026,7.208,0.062,10.805,0.071
			c3.641,0.015,7.278,0.006,10.919,0.006h33.13v13.033h-82.263V721.553z M558.682,781.805c-6.142,6.232-13.63,10.331-21.838,13.017
			c-5.211,1.707-10.624,2.806-15.963,4.097c-1.032,0.249-2.155,0.171-3.231,0.171c-13.772-0.03-27.542-0.072-41.315-0.121
			c-0.865-0.004-1.731-0.089-2.853-0.146v-78.036c0.788-0.062,1.446-0.16,2.106-0.156c12.788,0.058,25.584-0.171,38.357,0.282
			c12.132,0.434,23.687,3.526,34.266,9.719c4.796,2.81,9.052,6.273,12.539,10.619C571.116,754.164,570.306,770.007,558.682,781.805z
			"/>
	</g>
</g>
</svg>
